<svg width="16" height="16" viewBox="0 0 16 16" fill="none" xmlns="http://www.w3.org/2000/svg">
<path d="M11.2 7.06675C11.2 6.88994 11.1298 6.72037 11.0047 6.59534C10.8797 6.47032 10.7101 6.40008 10.5333 6.40008H6.53333C6.35652 6.40008 6.18695 6.47032 6.06192 6.59534C5.9369 6.72037 5.86666 6.88994 5.86666 7.06675C5.86666 7.24356 5.9369 7.41313 6.06192 7.53815C6.18695 7.66318 6.35652 7.73342 6.53333 7.73342H10.5333C10.7101 7.73342 10.8797 7.66318 11.0047 7.53815C11.1298 7.41313 11.2 7.24356 11.2 7.06675Z" fill="white"/>
<path d="M7.86927 9.06867C8.04608 9.06867 8.21565 9.13891 8.34067 9.26393C8.4657 9.38895 8.53593 9.55852 8.53593 9.73533C8.53593 9.91215 8.4657 10.0817 8.34067 10.2067C8.21565 10.3318 8.04608 10.402 7.86927 10.402H5.2026C5.02579 10.402 4.85622 10.3318 4.7312 10.2067C4.60617 10.0817 4.53593 9.91215 4.53593 9.73533C4.53593 9.55852 4.60617 9.38895 4.7312 9.26393C4.85622 9.13891 5.02579 9.06867 5.2026 9.06867H7.86927Z" fill="white"/>
<path d="M7.99726 4.53471e-07C9.3852 -0.000466801 10.7494 0.360166 11.9558 1.04646C13.1621 1.73276 14.1692 2.72111 14.878 3.9144C15.5868 5.10769 15.973 6.46486 15.9986 7.85256C16.0242 9.24025 15.6883 10.6107 15.0239 11.8293L15.9706 15.1493C16.0039 15.2659 16.0048 15.3894 15.9732 15.5064C15.9415 15.6235 15.8786 15.7297 15.7911 15.8136C15.7036 15.8975 15.5949 15.956 15.4766 15.9827C15.3583 16.0095 15.235 16.0035 15.1199 15.9653L12.0026 14.9267C10.9401 15.5406 9.75064 15.902 8.52618 15.9827C7.30172 16.0634 6.0751 15.8613 4.94122 15.3922C3.80733 14.923 2.79658 14.1993 1.98715 13.277C1.17771 12.3547 0.591303 11.2585 0.273276 10.0733C-0.0447509 8.88814 -0.0858672 7.64567 0.153107 6.44205C0.392081 5.23842 0.90474 4.10591 1.65142 3.13211C2.39811 2.15831 3.3588 1.36934 4.45919 0.826223C5.55957 0.283108 6.77014 0.000410599 7.99726 4.53471e-07ZM14.6639 8C14.6637 6.5208 14.1715 5.08369 13.2649 3.9149C12.3583 2.74612 11.0887 1.91204 9.65606 1.54399C8.22338 1.17593 6.70899 1.29481 5.35129 1.8819C3.99359 2.46898 2.8697 3.49094 2.15655 4.78687C1.44341 6.0828 1.18151 7.57911 1.4121 9.04022C1.64268 10.5013 2.35265 11.8443 3.43023 12.8576C4.50781 13.8709 5.8918 14.4971 7.36431 14.6375C8.83682 14.778 10.3142 14.4247 11.5639 13.6333C11.6475 13.5803 11.7419 13.5466 11.8401 13.5346C11.9384 13.5226 12.038 13.5327 12.1319 13.564L14.3426 14.3013L13.6626 11.9267C13.6378 11.8392 13.6312 11.7476 13.6431 11.6575C13.655 11.5674 13.6853 11.4807 13.7319 11.4027C14.3441 10.3734 14.6662 9.19757 14.6639 8Z" fill="white"/>
</svg>
