<svg width="16" height="16" viewBox="0 0 16 16" fill="none" xmlns="http://www.w3.org/2000/svg">
<path fill-rule="evenodd" clip-rule="evenodd" d="M0.581555 2.0361C0.953919 1.66374 1.45895 1.45455 1.98555 1.45455H7.27273C7.53503 1.45455 7.74766 1.66718 7.74766 1.92948C7.74766 2.19178 7.53503 2.40441 7.27273 2.40441H1.98555C1.71087 2.40441 1.44744 2.51353 1.25321 2.70776C1.05898 2.90199 0.949865 3.16542 0.949865 3.4401V14.0144C0.949865 14.2891 1.05898 14.5526 1.25321 14.7468C1.44744 14.941 1.71087 15.0501 1.98555 15.0501H12.5599C12.8346 15.0501 13.098 14.941 13.2922 14.7468C13.4865 14.5526 13.5956 14.2891 13.5956 14.0144V8.72727C13.5956 8.46497 13.8082 8.25234 14.0705 8.25234C14.3328 8.25234 14.5455 8.46497 14.5455 8.72727V14.0144C14.5455 14.541 14.3363 15.0461 13.9639 15.4184C13.5915 15.7908 13.0865 16 12.5599 16H1.98555C1.45895 16 0.953919 15.7908 0.581555 15.4184C0.209192 15.0461 0 14.541 0 14.0144V3.4401C0 2.9135 0.209192 2.40846 0.581555 2.0361Z" fill="white"/>
<path fill-rule="evenodd" clip-rule="evenodd" d="M13.9128 0.969697C13.6164 0.969697 13.3322 1.08743 13.1226 1.29701L6.04164 8.37796L5.51485 10.4852L7.62204 9.95836L14.703 2.87741C14.9126 2.66783 15.0303 2.38359 15.0303 2.08721C15.0303 1.79082 14.9126 1.50658 14.703 1.29701C14.4934 1.08743 14.2092 0.969697 13.9128 0.969697ZM12.4369 0.611329C12.8283 0.219902 13.3592 0 13.9128 0C14.4664 0 14.9972 0.219902 15.3887 0.611329C15.7801 1.00276 16 1.53365 16 2.08721C16 2.64077 15.7801 3.17166 15.3887 3.56309L8.21276 10.739C8.15062 10.8011 8.07277 10.8452 7.98751 10.8665L4.96608 11.6219C4.80085 11.6632 4.62607 11.6148 4.50565 11.4944C4.38522 11.3739 4.33681 11.1991 4.37811 11.0339L5.13347 8.01249C5.15479 7.92723 5.19887 7.84938 5.261 7.78724L12.4369 0.611329Z" fill="white"/>
</svg>
