<svg width="15" height="14" viewBox="0 0 15 14" fill="none" xmlns="http://www.w3.org/2000/svg">
<path d="M4.69817 3.99451L6.30157 2.3841V9.09878C6.30157 9.28448 6.37534 9.46257 6.50665 9.59388C6.63796 9.72518 6.81605 9.79895 7.00175 9.79895C7.18744 9.79895 7.36554 9.72518 7.49684 9.59388C7.62815 9.46257 7.70192 9.28448 7.70192 9.09878V2.3841L9.30532 3.99451C9.37041 4.06013 9.44785 4.11222 9.53317 4.14777C9.6185 4.18331 9.71001 4.20162 9.80244 4.20162C9.89488 4.20162 9.98639 4.18331 10.0717 4.14777C10.157 4.11222 10.2345 4.06013 10.2996 3.99451C10.3652 3.92942 10.4173 3.85198 10.4528 3.76665C10.4884 3.68133 10.5067 3.58981 10.5067 3.49738C10.5067 3.40495 10.4884 3.31343 10.4528 3.22811C10.4173 3.14279 10.3652 3.06535 10.2996 3.00026L7.49887 0.199559C7.43228 0.135815 7.35376 0.0858469 7.26781 0.0525226C7.09735 -0.0175075 6.90614 -0.0175075 6.73568 0.0525226C6.64973 0.0858469 6.57121 0.135815 6.50462 0.199559L3.70392 3.00026C3.63864 3.06554 3.58685 3.14304 3.55152 3.22834C3.51619 3.31364 3.49801 3.40506 3.49801 3.49738C3.49801 3.58971 3.51619 3.68113 3.55152 3.76642C3.58685 3.85172 3.63864 3.92922 3.70392 3.99451C3.76921 4.05979 3.84671 4.11157 3.93201 4.1469C4.0173 4.18224 4.10872 4.20042 4.20105 4.20042C4.29337 4.20042 4.38479 4.18224 4.47009 4.1469C4.55539 4.11157 4.63289 4.05979 4.69817 3.99451ZM13.3033 8.3986C13.1176 8.3986 12.9395 8.47237 12.8082 8.60368C12.6769 8.73499 12.6031 8.91308 12.6031 9.09878V11.8995C12.6031 12.0852 12.5294 12.2633 12.3981 12.3946C12.2668 12.5259 12.0887 12.5997 11.903 12.5997H2.10052C1.91483 12.5997 1.73673 12.5259 1.60543 12.3946C1.47412 12.2633 1.40035 12.0852 1.40035 11.8995V9.09878C1.40035 8.91308 1.32658 8.73499 1.19527 8.60368C1.06396 8.47237 0.885872 8.3986 0.700175 8.3986C0.514477 8.3986 0.336385 8.47237 0.205076 8.60368C0.0737682 8.73499 0 8.91308 0 9.09878V11.8995C0 12.4566 0.221305 12.9908 0.615229 13.3848C1.00915 13.7787 1.54343 14 2.10052 14H11.903C12.4601 14 12.9943 13.7787 13.3883 13.3848C13.7822 12.9908 14.0035 12.4566 14.0035 11.8995V9.09878C14.0035 8.91308 13.9297 8.73499 13.7984 8.60368C13.6671 8.47237 13.489 8.3986 13.3033 8.3986Z" fill="white"/>
</svg>
