<svg width="11" height="10" viewBox="0 0 11 10" fill="none" xmlns="http://www.w3.org/2000/svg">
<path fill-rule="evenodd" clip-rule="evenodd" d="M0 3H11V8.03223C11 8.55469 10.793 9.05469 10.4246 9.42383C10.0564 9.79297 9.55664 10 9.03564 10H1.96436C1.76318 10 1.56519 9.96875 1.37671 9.90918C1.0769 9.81543 0.801514 9.65039 0.575439 9.42383C0.207031 9.05469 0 8.55469 0 8.03223V3ZM5.5 4C5.77612 4 6 4.22363 6 4.5V6H7.5C7.77612 6 8 6.22363 8 6.5C8 6.77637 7.77612 7 7.5 7H6V8.5C6 8.77637 5.77612 9 5.5 9C5.22388 9 5 8.77637 5 8.5V7H3.5C3.22388 7 3 6.77637 3 6.5C3 6.22363 3.22388 6 3.5 6H5V4.5C5 4.22363 5.22388 4 5.5 4Z" fill="white"/>
<path d="M0 2C0 0.895431 0.895431 0 2 0H9C10.1046 0 11 0.895431 11 2H0Z" fill="white"/>
</svg>
