<svg width="12" height="11" viewBox="0 0 12 11" fill="none" xmlns="http://www.w3.org/2000/svg">
<path d="M1.10605 2.2011H9.91046V3.30165H1.10605V2.2011ZM2.2066 0H8.80991V1.10055H2.2066V0ZM9.90495 4.3967H1.10055C0.808666 4.3967 0.528737 4.51265 0.322344 4.71904C0.11595 4.92544 0 5.20536 0 5.49725V9.89945C0 10.1913 0.11595 10.4713 0.322344 10.6777C0.528737 10.884 0.808666 11 1.10055 11H9.90495C10.1968 11 10.4768 10.884 10.6832 10.6777C10.8896 10.4713 11.0055 10.1913 11.0055 9.89945V5.49725C11.0055 5.20536 10.8896 4.92544 10.6832 4.71904C10.4768 4.51265 10.1968 4.3967 9.90495 4.3967ZM4.56728 9.89945L2.75138 8.11656L3.52176 7.34617L4.56728 8.3917L7.48374 5.47524L8.25413 6.24562L4.56728 9.89945Z" fill="white"/>
</svg>
