<svg width="11" height="10" viewBox="0 0 11 10" fill="none" xmlns="http://www.w3.org/2000/svg">
<path fill-rule="evenodd" clip-rule="evenodd" d="M0 3H11V8.03223C11 8.55469 10.793 9.05469 10.4246 9.42383C10.0564 9.79297 9.55664 10 9.03564 10H1.96436C1.44336 10 0.943604 9.79297 0.575439 9.42383C0.207031 9.05469 0 8.55469 0 8.03223V3ZM6.95044 4.03613C6.92944 4.02637 6.90747 4.01855 6.88452 4.0127C6.83789 4.00098 6.78906 3.99707 6.74072 4.00195C6.69263 4.00781 6.646 4.02148 6.60376 4.04297C6.56152 4.06445 6.52466 4.09375 6.49463 4.12891L3.92212 7.12695L2.66138 5.73438C2.63184 5.69824 2.59473 5.66895 2.552 5.64648C2.50952 5.62402 2.4624 5.60938 2.41357 5.60352C2.36475 5.59863 2.31519 5.60156 2.26782 5.61426C2.22046 5.62598 2.17603 5.64648 2.1377 5.6748C2.09937 5.70215 2.06738 5.7373 2.04419 5.77637C2.02075 5.81543 2.00635 5.8584 2.00171 5.90332C1.99707 5.94727 2.0022 5.99219 2.01709 6.03516C2.03198 6.07715 2.05615 6.11719 2.08813 6.15039L3.62061 7.87598C3.65527 7.91504 3.69897 7.94629 3.74854 7.96777C3.7981 7.98926 3.85229 8 3.90723 8C3.96558 8.00195 4.02368 7.99219 4.07666 7.96973C4.09692 7.96094 4.11621 7.95117 4.13452 7.93945C4.16382 7.9209 4.19019 7.89941 4.2124 7.87305L7.09009 4.54199C7.11938 4.50684 7.14087 4.46582 7.15283 4.42285C7.16479 4.38086 7.16724 4.33594 7.16016 4.29199C7.15283 4.24805 7.13623 4.20605 7.11084 4.16895C7.08569 4.13086 7.05249 4.09766 7.01294 4.07227C6.99341 4.05859 6.97266 4.0459 6.95044 4.03613ZM8.85059 4.07227C8.8125 4.04492 8.76904 4.02441 8.72217 4.0127C8.67554 4.00098 8.62671 3.99707 8.57861 4.00195C8.53027 4.00781 8.48364 4.02148 8.44141 4.04297C8.39917 4.06445 8.3623 4.09375 8.33252 4.12891L5.75977 7.12695L5.5354 6.87695L5.07251 7.41699L5.47656 7.87305C5.49707 7.89648 5.52075 7.91602 5.54688 7.93262C5.56494 7.94434 5.58423 7.95508 5.60449 7.96387C5.6543 7.98535 5.7085 7.99609 5.76343 7.99609C5.8186 7.99609 5.87305 7.98438 5.92261 7.96289C5.97217 7.94043 6.01587 7.90918 6.05005 7.87012L8.92773 4.53809C8.95654 4.50293 8.97729 4.46289 8.98901 4.4209C9.00073 4.37793 9.00317 4.33398 8.99585 4.29102C8.99219 4.26855 8.98633 4.24707 8.97803 4.22656C8.96997 4.20605 8.95972 4.18652 8.94727 4.16797C8.92236 4.13086 8.8894 4.09766 8.85059 4.07227ZM4.57983 5.81348L4.10571 6.35352L3.92554 6.13672C3.89502 6.10254 3.87231 6.06348 3.8584 6.02148C3.84473 5.97949 3.84033 5.93555 3.84546 5.8916C3.85059 5.84766 3.86523 5.80566 3.88843 5.76758C3.89941 5.74902 3.91211 5.73242 3.92627 5.7168C3.94238 5.69824 3.96069 5.68164 3.98071 5.66699C4.01025 5.64648 4.04321 5.62891 4.07861 5.61719L4.1123 5.60742C4.16016 5.5957 4.20996 5.59277 4.25928 5.59863C4.29175 5.60352 4.32349 5.61133 4.35327 5.62305C4.36865 5.62891 4.38354 5.63574 4.39795 5.64355C4.44043 5.66699 4.47729 5.69727 4.50635 5.7334L4.57983 5.81348Z" fill="white"/>
<path d="M0 2C0 0.895431 0.895431 0 2 0H9C10.1046 0 11 0.895431 11 2H0Z" fill="white"/>
</svg>
