<svg width="16" height="15" viewBox="0 0 16 15" fill="none" xmlns="http://www.w3.org/2000/svg">
<path d="M7.00625 0.604141C7.09773 0.42279 7.23924 0.270103 7.41475 0.163341C7.59027 0.056579 7.79281 0 7.99946 0C8.20612 0 8.40866 0.056579 8.58417 0.163341C8.75969 0.270103 8.90119 0.42279 8.99268 0.604141L10.8647 4.31645L15.0504 4.91148C15.2551 4.94037 15.4474 5.02472 15.6055 5.15501C15.7637 5.28529 15.8815 5.4563 15.9455 5.64869C16.0096 5.84108 16.0173 6.04717 15.9679 6.24364C15.9184 6.44011 15.8138 6.61912 15.6658 6.76041L12.6357 9.65125L13.3508 13.7309C13.3855 13.9303 13.3626 14.1351 13.2847 14.3224C13.2067 14.5096 13.0768 14.6718 12.9096 14.7906C12.7424 14.9094 12.5446 14.98 12.3385 14.9945C12.1324 15.0091 11.9263 14.9669 11.7434 14.8728L7.99946 12.948L4.25551 14.8752C4.07244 14.9695 3.86604 15.0118 3.65969 14.9972C3.45334 14.9826 3.2553 14.9117 3.08799 14.7926C2.92069 14.6735 2.79081 14.5109 2.71307 14.3233C2.63533 14.1356 2.61285 13.9304 2.64815 13.7309L3.36199 9.65125L0.334336 6.76162C0.186371 6.6204 0.081726 6.44149 0.032232 6.24511C-0.017262 6.04873 -0.00963047 5.84271 0.0542638 5.65035C0.118158 5.45799 0.235766 5.28697 0.393791 5.15661C0.551816 5.02625 0.743955 4.94176 0.948482 4.91269L5.13304 4.31766L7.00625 0.605346V0.604141ZM7.99823 1.35576L6.20872 4.90666C6.12926 5.0641 6.01191 5.20029 5.86677 5.30352C5.72163 5.40676 5.55304 5.47394 5.3755 5.49929L1.37186 6.06902L4.26905 8.83218C4.39735 8.95488 4.49329 9.10625 4.5486 9.27326C4.60391 9.44027 4.61695 9.61794 4.58659 9.79097L3.90352 13.6936L7.48501 11.8507C7.64388 11.769 7.82063 11.7264 8.00008 11.7264C8.17953 11.7264 8.35628 11.769 8.51515 11.8507L12.0966 13.6936L11.4123 9.79097C11.382 9.61794 11.395 9.44027 11.4503 9.27326C11.5056 9.10625 11.6016 8.95488 11.7299 8.83218L14.6271 6.06902L10.6234 5.49929C10.4459 5.47394 10.2773 5.40676 10.1322 5.30352C9.98701 5.20029 9.86967 5.0641 9.79021 4.90666L7.99823 1.35576Z" fill="white"/>
</svg>
