<svg width="28" height="28" viewBox="0 0 28 28" fill="none" xmlns="http://www.w3.org/2000/svg">
<path d="M3.83432 0C2.8174 0 1.84212 0.399478 1.12305 1.11055C0.403972 1.82163 0 2.78605 0 3.79167V24.2083C0 25.2139 0.403972 26.1784 1.12305 26.8894C1.84212 27.6005 2.8174 28 3.83432 28H17.1451L14.6003 25.4835C14.3538 25.2397 14.1582 24.9504 14.0248 24.6319C13.8914 24.3134 13.8228 23.9721 13.8228 23.6273C13.8228 23.2826 13.8914 22.9413 14.0248 22.6228C14.1582 22.3043 14.3538 22.0149 14.6003 21.7712C14.8468 21.5274 15.1394 21.3341 15.4615 21.2021C15.7835 21.0702 16.1287 21 16.4773 21C16.8259 21 17.1711 21.0702 17.4932 21.2021C17.8152 21.3341 18.1079 21.5274 18.3544 21.7712L20.0143 23.4127L25.216 18.2688C25.3411 18.1452 25.4756 18.0355 25.6183 17.9422V3.79167C25.6183 2.78605 25.2144 1.82163 24.4953 1.11055C23.7762 0.399478 22.8009 0 21.784 0H3.83432ZM6.99448 7.45833C6.99448 7.84511 6.83911 8.21604 6.56254 8.48953C6.28597 8.76302 5.91086 8.91667 5.51974 8.91667C5.12861 8.91667 4.75351 8.76302 4.47694 8.48953C4.20037 8.21604 4.045 7.84511 4.045 7.45833C4.045 7.07156 4.20037 6.70063 4.47694 6.42714C4.75351 6.15365 5.12861 6 5.51974 6C5.91086 6 6.28597 6.15365 6.56254 6.42714C6.83911 6.70063 6.99448 7.07156 6.99448 7.45833ZM5.51974 14.9167C5.12861 14.9167 4.75351 14.763 4.47694 14.4895C4.20037 14.216 4.045 13.8451 4.045 13.4583C4.045 13.0716 4.20037 12.7006 4.47694 12.4271C4.75351 12.1536 5.12861 12 5.51974 12C5.91086 12 6.28597 12.1536 6.56254 12.4271C6.83911 12.7006 6.99448 13.0716 6.99448 13.4583C6.99448 13.8451 6.83911 14.216 6.56254 14.4895C6.28597 14.763 5.91086 14.9167 5.51974 14.9167ZM5.51974 20.9167C5.12861 20.9167 4.75351 20.763 4.47694 20.4895C4.20037 20.216 4.045 19.8451 4.045 19.4583C4.045 19.0716 4.20037 18.7006 4.47694 18.4271C4.75351 18.1536 5.12861 18 5.51974 18C5.91086 18 6.28597 18.1536 6.56254 18.4271C6.83911 18.7006 6.99448 19.0716 6.99448 19.4583C6.99448 19.8451 6.83911 20.216 6.56254 20.4895C6.28597 20.763 5.91086 20.9167 5.51974 20.9167ZM9.64901 6.58333H20.0143C20.249 6.58333 20.4741 6.67552 20.64 6.83962C20.8059 7.00371 20.8992 7.22627 20.8992 7.45833C20.8992 7.6904 20.8059 7.91296 20.64 8.07705C20.4741 8.24115 20.249 8.33333 20.0143 8.33333H9.64901C9.41433 8.33333 9.18927 8.24115 9.02333 8.07705C8.85739 7.91296 8.76417 7.6904 8.76417 7.45833C8.76417 7.22627 8.85739 7.00371 9.02333 6.83962C9.18927 6.67552 9.41433 6.58333 9.64901 6.58333ZM8.76417 13.4583C8.76417 13.2263 8.85739 13.0037 9.02333 12.8396C9.18927 12.6755 9.41433 12.5833 9.64901 12.5833H20.0143C20.249 12.5833 20.4741 12.6755 20.64 12.8396C20.8059 13.0037 20.8992 13.2263 20.8992 13.4583C20.8992 13.6904 20.8059 13.913 20.64 14.0771C20.4741 14.2411 20.249 14.3333 20.0143 14.3333H9.64901C9.41433 14.3333 9.18927 14.2411 9.02333 14.0771C8.85739 13.913 8.76417 13.6904 8.76417 13.4583ZM9.64901 18.5833H20.0143C20.249 18.5833 20.4741 18.6755 20.64 18.8396C20.8059 19.0037 20.8992 19.2263 20.8992 19.4583C20.8992 19.6904 20.8059 19.913 20.64 20.0771C20.4741 20.2411 20.249 20.3333 20.0143 20.3333H9.64901C9.41433 20.3333 9.18927 20.2411 9.02333 20.0771C8.85739 19.913 8.76417 19.6904 8.76417 19.4583C8.76417 19.2263 8.85739 19.0037 9.02333 18.8396C9.18927 18.6755 9.41433 18.5833 9.64901 18.5833Z" fill="white"/>
<path d="M20.6396 27.7432L27.7184 20.7432C27.8053 20.6631 27.8751 20.5665 27.9234 20.4591C27.9718 20.3518 27.9978 20.2359 27.9999 20.1185C28.002 20.001 27.9801 19.8843 27.9356 19.7753C27.8911 19.6664 27.8249 19.5674 27.7408 19.4843C27.6568 19.4012 27.5567 19.3357 27.4466 19.2917C27.3364 19.2477 27.2184 19.2261 27.0996 19.2282C26.9808 19.2302 26.8636 19.256 26.755 19.3038C26.6465 19.3516 26.5488 19.4206 26.4678 19.5065L20.0143 25.8882L17.1026 23.0089C16.9349 22.8543 16.713 22.7701 16.4838 22.7741C16.2546 22.7781 16.0358 22.87 15.8737 23.0303C15.7116 23.1906 15.6187 23.4069 15.6147 23.6336C15.6107 23.8603 15.6957 24.0796 15.852 24.2455L19.3891 27.7432C19.555 27.907 19.7799 27.9991 20.0143 27.9991C20.2488 27.9991 20.4737 27.907 20.6396 27.7432Z" fill="white"/>
</svg>
